<svg width="120" height="120" viewBox="0 0 120 120" fill="none" xmlns="http://www.w3.org/2000/svg">
<path fill-rule="evenodd" clip-rule="evenodd" d="M91.4062 0C108.75 0 120 11.25 120 28.5938V91.4062C120 108.75 108.75 120 91.4062 120H28.5938C11.25 120 0 108.75 0 91.4062V28.5938C0 11.25 11.25 0 28.5938 0H91.4062Z" fill="#081245"/>
<g filter="url(#filter0_d_701_23)">
<path d="M30.4362 59.5016C30.9587 59.0587 30.9587 58.2018 30.4362 57.7588L14.4818 44.2328C13.3769 43.2983 12.5001 42.1878 11.9027 40.9654C11.3052 39.7429 10.9985 38.4325 11 37.1092C10.9978 35.7857 11.3042 34.4749 11.9015 33.252C12.4987 32.0292 13.3752 30.9185 14.4804 29.9838C19.1217 26.0494 26.646 26.0494 31.2878 29.9842L47.9366 44.0987C48.1418 44.2728 48.2413 44.5557 48.195 44.8336C48.1646 45.0161 48.0737 45.1804 47.9394 45.2954L33.5143 57.6564C32.9962 58.1003 32.9976 58.9524 33.5171 59.3945L47.879 71.6145C48.0862 71.7908 48.2153 72.0536 48.2345 72.3383C48.2572 72.6755 48.1234 73.0028 47.8777 73.2112L31.4378 87.1486C26.7959 91.0839 19.2722 91.0849 14.6298 87.1496C9.98906 83.2148 9.98906 76.8359 14.6315 72.9006L30.4362 59.5016Z" fill="#00FF67"/>
<path d="M75.5737 27.0042C67.1913 26.8716 59.5017 29.856 53.6278 34.8729C52.9466 35.4537 52.2898 36.0617 51.6588 36.6956C53.0676 35.5229 54.858 34.8931 56.7016 34.9216L56.7172 34.9218C57.7252 34.9375 58.7208 35.1498 59.6468 35.5465C60.5728 35.9432 61.411 36.5164 62.1134 37.2335C64.7825 39.9514 64.9914 44.1289 62.7784 47.0655C63.2507 46.6069 63.7488 46.1749 64.2702 45.7716C67.327 43.4044 71.1894 42.0147 75.3705 42.0808C85.0835 42.2345 92.8802 50.1738 92.7508 59.7789C92.6213 69.384 84.6139 77.0732 74.901 76.9195C70.7199 76.8534 66.8969 75.342 63.9053 72.8787C63.2845 72.3671 62.6996 71.8144 62.1546 71.2244C64.5023 74.245 63.8226 78.2888 61 81C58.1774 83.7112 54.2053 84.1339 51.2212 81.7255C51.7674 82.3 52.3344 82.8548 52.9211 83.3887L52.9444 83.4101C58.6843 88.6262 66.3016 91.8629 74.6978 91.9958C92.8467 92.283 107.755 77.9672 107.997 60.0202C108.239 42.0732 93.7227 27.2914 75.5737 27.0042Z" fill="#00FF67"/>
<path d="M59.7441 49.1141L50.6922 57.9616C50.2639 58.3803 50.2404 59.1001 50.6405 59.5505L58.9036 68.8522C59.2006 69.2666 59.5169 69.6653 59.8515 70.0468C62.4048 73.7511 61.8591 76.6987 59.5088 78.9958C58.2073 80.2679 56.4164 81.0608 54.7671 81L54.7647 80.9999C54.7246 80.9985 52.1153 80.8958 50.0996 78.7677C49.9908 78.6524 49.8747 78.543 49.7676 78.4224L32.3831 58.8528C31.983 58.4024 32.0064 57.6826 32.4348 57.2639L50.9648 39.152C51.1501 38.9728 51.3447 38.8045 51.5475 38.6476C54.9107 36.0136 58.7394 36.4682 61 39.0126C63.2606 41.558 63.0243 45.3674 60.3019 48.504C60.1107 48.702 59.9248 48.9054 59.7441 49.1141Z" fill="#00FF67"/>
</g>
<defs>
<filter id="filter0_d_701_23" x="11" y="27" width="105" height="73" filterUnits="userSpaceOnUse" color-interpolation-filters="sRGB">
<feFlood flood-opacity="0" result="BackgroundImageFix"/>
<feColorMatrix in="SourceAlpha" type="matrix" values="0 0 0 0 0 0 0 0 0 0 0 0 0 0 0 0 0 0 127 0" result="hardAlpha"/>
<feOffset dx="4" dy="4"/>
<feGaussianBlur stdDeviation="2"/>
<feComposite in2="hardAlpha" operator="out"/>
<feColorMatrix type="matrix" values="0 0 0 0 0 0 0 0 0 0 0 0 0 0 0 0 0 0 0.25 0"/>
<feBlend mode="normal" in2="BackgroundImageFix" result="effect1_dropShadow_701_23"/>
<feBlend mode="normal" in="SourceGraphic" in2="effect1_dropShadow_701_23" result="shape"/>
</filter>
</defs>
</svg>
